<svg width="486" height="226" xmlns="http://www.w3.org/2000/svg">
 <metadata id="metadata8">image/svg+xml</metadata>
 <defs>
  <clipPath id="clipPath16">
   <path d="m-123.18972,1081.276001l612.000023,0l0,-792.000031l-612.000023,0l0,792.000031z" id="path18"/>
  </clipPath>
 </defs>
 <g>
  <title>Layer 1</title>
  <g transform="matrix(1.25 0 0 -1.25 0 990)" id="g10">
   <g id="g12">
    <g clip-path="url(#clipPath16)" id="g14">
     <g id="g20">
      <path d="m379.406006,667.260376c0,-1.565002 -0.338989,-3.05896 -0.950989,-4.419006c-0.612,-1.358948 -1.499023,-2.587036 -2.595001,-3.621033c-1.096008,-1.033936 -2.400024,-1.872925 -3.850006,-2.45697c-1.450012,-0.583984 -3.042999,-0.911987 -4.716003,-0.92395l-87.507019,-12.733032l-88.296982,-9.817993l-89.09803,-9.906006l-89.911983,-12c-1.734009,-0.015015 -3.382996,0.294006 -4.881012,0.867004c-1.497986,0.572998 -2.843987,1.406982 -3.972985,2.445984c-1.127991,1.037048 -2.037994,2.274963 -2.662994,3.653992c-0.623985,1.378052 -0.963005,4.89801 -0.950005,6.495972l0.325005,39.018066l0.324982,38.950012l0.324013,38.884949l0.322998,38.817993c0.013,1.584961 0.376007,3.096985 1.020996,4.471985c0.645027,1.372986 1.573006,2.611023 2.71402,3.649963c1.140991,1.038025 2.496002,1.879028 3.998001,2.460022c1.501999,0.580994 3.149979,0.902039 4.876007,0.902039l89.445003,-9.949036l88.707985,-12.879944l87.98204,-7.801025l87.268005,-9.732056c1.667999,0.003052 3.258972,-0.309937 4.703979,-0.879944c1.446014,-0.568054 2.748016,-1.393982 3.84201,-2.413025c1.092987,-1.018921 1.97699,-2.234009 2.588989,-3.583923c0.610992,-1.351074 0.949036,-2.835022 0.949036,-4.39502l0,-15.245056l0,-20.27002l0,-20.286987l0,-17.303955l-0.000061,0z" id="path22" fill-rule="nonzero" fill="#373535"/>
     </g>
     <g id="g24">
      <path d="m388.916687,664.441956c0,-6.198975 -5.460999,-11.226013 -12.194,-11.226013l-350.611012,-37.972961c-6.734985,0 -12.195006,5.026001 -12.195006,11.224976l0,151.608948c0,6.199036 5.460021,11.225037 12.195006,11.225037l350.611012,-38.166931c6.733002,0 12.194,-5.026001 12.194,-11.225037l0,-75.468018z" id="path26" fill-rule="nonzero" fill="#ffffff"/>
     </g>
     <g id="g28">
      <path d="m388.916687,664.441956c0,-6.198975 -5.460999,-11.226013 -12.194,-11.226013l-350.611012,-37.972961c-6.734985,0 -12.195006,5.026001 -12.195006,11.224976l0,151.608948c0,6.199036 5.460021,11.225037 12.195006,11.225037l350.611012,-38.166931c6.733002,0 12.194,-5.026001 12.194,-11.225037l0,-75.468018z" id="path30" stroke-miterlimit="4" stroke-width="3" stroke="#373535" fill="none"/>
     </g>
     <g id="g32">
      <path d="m57.046581,710.417603l2.250004,-0.034058c5.159996,-0.080933 13.702995,-0.486938 13.708992,7.036011c0.007004,8.244995 -8.447006,7.75 -14.144997,7.966003l-1.80098,0.067017l-0.013,-15.034973l-0.000019,0zm0.024002,28.584961l1.98,-0.113953c4.633999,-0.268005 9.37899,0.278992 9.384987,6.115967c0.005005,6.296021 -5.359982,7.078979 -10.090984,7.447998l-1.262009,0.098999l-0.011993,-13.549011zm-18.205002,-42.600037l0.065006,71.85907l25.660988,-2.530029c11.619003,-1.144043 19.197998,-6.528992 19.188004,-19.363037c-0.005005,-6.059998 -1.847,-10.861938 -6.997009,-13.373962l0,-0.178955c9.058014,-1.70105 12.837006,-8.331055 12.831009,-17.606079c-0.011002,-13.957947 -11.247009,-18.609009 -23.143005,-18.667969l-27.605003,-0.139038l0.000011,0z" id="path34" fill-rule="nonzero" fill="#373535"/>
     </g>
     <g id="g36">
      <path d="m113.097374,732.183167l1.437988,-0.075989c4.798004,-0.248047 10.108002,0.47699 10.114014,7.327026c0.003006,6.844971 -5.305023,8.261963 -10.10202,8.634949l-1.438995,0.112l-0.011002,-15.997986l0.000015,0zm31.051018,-35.250977l-17.198013,-0.085999l-13.707985,24.609009l-0.153,0.00592l-0.016998,-24.68396l-15.246017,-0.078003l0.050003,65.752014l22.515991,-2.222046c10.849007,-1.069031 18.818001,-7.643005 18.811012,-20.764954c-0.005005,-8.477966 -4.076996,-15.653015 -11.729004,-16.924011l16.674011,-25.607971z" id="path38" fill-rule="nonzero" fill="#373535"/>
     </g>
     <g id="g40">
      <path d="m160.716599,697.015259l-12.964996,-0.063965l0.036987,60.578003l12.963013,-1.279053l-0.035004,-59.234985z" id="path42" fill-rule="nonzero" fill="#373535"/>
     </g>
     <g id="g44">
      <path d="m180.937302,709.697876l2.635986,-0.046021c6.886017,-0.121948 12.639008,4.491028 12.64502,15.323059c0.005005,9.947998 -5.104004,15.934937 -12.509003,16.494934l-2.755005,0.210022l-0.016998,-31.981995zm-12.028992,45.748047l16.942993,-1.670044c12.136993,-1.195984 21.734009,-14.04303 21.727997,-29.332031c-0.006012,-15.290955 -9.673004,-27.240967 -21.756989,-27.302979l-16.946014,-0.084961l0.032013,58.390015z" id="path46" fill-rule="nonzero" fill="#373535"/>
     </g>
     <g id="g48">
      <path d="m249.827896,725.385376c-0.095001,-7.291992 -0.46701,-13.519043 -3.583008,-19.721985c-3.485992,-6.888977 -8.812988,-9.963013 -14.997986,-10.013977c-12.063995,-0.103027 -20.808014,11.372925 -20.799011,28.375977c0.006989,17.56897 8.812012,28.21698 21.166016,26.957031c7.578003,-0.773071 13.285004,-6.042053 16.319,-15.709045l-8.796021,-4.646973c-1.302002,4.975952 -4.075989,8.457031 -7.971985,8.764954c-6.497009,0.512024 -9.942017,-7.859985 -9.945007,-15.937988c-0.003998,-8.217957 3.588013,-16.628967 10.080017,-16.716003c4.188995,-0.057922 7.344971,2.883972 7.734985,8.776001l-7.830994,0.248047l0.005981,10.606995l18.618011,-0.983032z" id="path50" fill-rule="nonzero" fill="#373535"/>
     </g>
     <g id="g52">
      <path d="m262.658905,735.486877l-0.005005,-8.132996l9.457001,-0.552979l-0.002991,-10.501038l-9.455994,0.338013l-0.003021,-8.390991l9.959015,-0.17804l-0.002991,-10.489014l-18.677017,-0.095947l0.015991,49.578003l18.675003,-1.841003l-0.002991,-10.488037l-9.957001,0.754028z" id="path54" fill-rule="nonzero" fill="#373535"/>
     </g>
     <g id="g56">
      <path d="m289.567108,697.664673l-7.73999,-0.039001l0.010986,36.409973l-6.605988,0.5l0.005005,10.42804l20.540985,-2.026001l-0.003998,-9.960999l-6.197998,0.470947l-0.009003,-35.782959z" id="path58" fill-rule="nonzero" fill="#373535"/>
     </g>
     <g id="g60">
      <path d="m304.531006,720.673462c-0.001007,-7.644958 3.447998,-13.291992 7.578003,-13.36499c4.049988,-0.072998 7.316986,5.260986 7.317993,12.640015c0,5.901978 -3.263,11.541016 -7.313995,11.847961c-4.129028,0.315002 -7.580994,-5.009949 -7.582001,-11.122986m21.667999,-0.998047c-0.001984,-13.619995 -5.799011,-23.272949 -14.093994,-23.341919c-8.632019,-0.073059 -15.096008,10.16394 -15.093994,24.762939c0.000977,13.640991 7.378998,22.46106 15.104004,21.673035c7.449982,-0.760071 14.085999,-10.367004 14.083984,-23.094055" id="path62" fill-rule="nonzero" fill="#373535"/>
     </g>
     <g id="g64">
      <path d="m337.217499,712.404907l0.062988,-0.002075l4.825012,25.968079l4.645996,-0.460022l4.304016,-25.945007l0.057983,-0.000977l4.041992,25.117004l5.660004,-0.557007l-6.704987,-38.535034l-5.751007,-0.030029l-3.889008,23.279053l-0.059998,0.004028l-4.463989,-23.325073l-6.158997,-0.031982l-7.197021,42.013l6.542023,-0.643982l4.084961,-26.849976l0.000031,0z" id="path66" fill-rule="nonzero" fill="#373535"/>
     </g>
     <g id="g68">
      <path d="m362.147217,736.393188l5.240997,-0.517029l9.225006,-23.447998l0.050995,-0.001038l-0.001007,22.535034l4.841003,-0.47699l-0.001007,-36.359985l-4.839996,-0.02301l-9.222992,23.125977l-0.052002,0.003052l-0.001984,-23.176025l-5.241028,-0.026001l0.002014,38.363953l0,0.000061z" id="path70" fill-rule="nonzero" fill="#373535"/>
     </g>
     <g id="g72">
      <path d="m230.38649,673.254456c-0.996002,1.814026 -2.630005,2.737976 -4.324005,2.657959c-3.062988,-0.143982 -5.152985,-3.47699 -5.154999,-7.589966c0,-4.182007 2.112,-7.046021 5.225006,-6.809021c1.618988,0.122986 3.22699,1.315063 4.251984,3.083008l-0.002991,-8.109985c-1.626984,-0.833008 -2.809998,-1.458008 -4.35199,-1.593018c-2.679016,-0.23999 -5.255005,0.937012 -7.28302,3.27002c-2.174988,2.481995 -3.175995,5.889038 -3.174988,9.864014c0.002014,3.661011 1.032013,7.224976 2.92099,9.929993c1.929016,2.756958 4.690002,4.468018 7.396027,4.560974c1.594971,0.054993 3.051971,-0.378052 4.501984,-1.156982l-0.003998,-8.106995z" id="path74" fill-rule="nonzero" fill="#373535"/>
     </g>
     <g id="g76">
      <path d="m237.442093,669.853088c-0.002014,-4.420044 2.312988,-7.479065 5.106995,-7.266052c2.763,0.210022 5.007996,3.549011 5.01001,7.879028c0.001007,3.466003 -2.242004,6.528992 -5.003998,6.397949c-2.795013,-0.131958 -5.110992,-3.473999 -5.113037,-7.010925m14.815002,0.932983c-0.001984,-8.052979 -4.031982,-14.088013 -9.710999,-14.595032c-5.813995,-0.518982 -10.104004,5.01001 -10.098999,13.393005c0.001984,7.834045 4.903992,13.499023 10.109985,13.674988c5.09903,0.174011 9.703003,-4.948975 9.700012,-12.472961" id="path78" fill-rule="nonzero" fill="#373535"/>
     </g>
     <g id="g80">
      <path d="m256.196014,682.90387l4.292999,0.153992l3.342987,-12.857971l3.498016,13.10199l4.136993,0.147949l2.377014,-23.677979l-4.115021,-0.359985l-1.164978,13.733032l-0.042999,-0.003052l-3.888,-14.175964l-1.697998,-0.148987l-3.798004,13.783936l-0.044006,-0.001953l-1.407013,-14.239014l-4.387009,-0.385986l2.897018,24.929993z" id="path82" fill-rule="nonzero" fill="#373535"/>
     </g>
     <g id="g84">
      <path d="m279.579803,678.572876l-0.001007,-3.921997l4.440002,0.249023l-0.001007,-5.116028l-4.440002,-0.297974l-0.001984,-4.046021l4.678009,0.356995l-0.001007,-5.115967l-8.692017,-0.757996l0.007019,23.672913l8.692993,0.307983l-0.002014,-5.109924l-4.678986,-0.221008l0,0z" id="path86" fill-rule="nonzero" fill="#373535"/>
     </g>
     <g id="g88">
      <path d="m290.466614,666.269165l0.850006,0.062988c2.238983,0.171021 4.138,2.239014 4.138,6.651978c0.001007,4.055054 -1.686005,6.25708 -4.097015,6.143005l-0.888,-0.040955l-0.002991,-12.817017zm-3.815002,17.722046l5.397003,0.192993c3.993011,0.141968 7.229004,-4.654053 7.22699,-10.96405c-0.000977,-6.310974 -3.256989,-11.507996 -7.231995,-11.85498l-5.399994,-0.473022l0.007996,23.09906z" id="path90" fill-rule="nonzero" fill="#373535"/>
     </g>
     <g id="g92">
      <path d="m299.425507,684.446899l4.31601,0.154968l2.546997,-5.914001l2.519989,6.093994l4.132019,0.147034l-4.900024,-11.608032l-0.001984,-10.555969l-3.52002,-0.309021l0,10.644958l-5.092987,11.346069z" id="path94" fill-rule="nonzero" fill="#373535"/>
     </g>
     <g id="g96">
      <path d="m322.864014,680.610962l0,-3.546997l3.536987,0.197021l-0.000977,-4.630066l-3.536011,-0.239929l-0.001007,-8.330017l-3.278992,-0.287048l0.001984,21.392029l7.175018,0.256042l-0.001007,-4.627075l-3.895996,-0.18396z" id="path98" fill-rule="nonzero" fill="#373535"/>
     </g>
     <g id="g100">
      <path d="m331.665802,681.024963l-0.001007,-3.470032l3.481018,0.194031l0,-4.532043l-3.482025,-0.23291l0,-3.579041l3.667999,0.277954l-0.000977,-4.530945l-6.807007,-0.594971l0.002991,20.927917l6.807007,0.243042l0,-4.529968l-3.667999,-0.173035z" id="path102" fill-rule="nonzero" fill="#373535"/>
     </g>
     <g id="g104">
      <path d="m343.507599,680.833557c-0.540009,0.776001 -1.230011,1.281006 -1.954987,1.25c-0.545013,-0.026001 -1.274017,-0.625 -1.274017,-1.757019c0,-1.184998 0.804016,-1.599976 1.319,-1.866943l0.756012,-0.362061c1.571991,-0.73999 2.776978,-2.080994 2.777985,-5.326965c-0.001007,-1.997009 -0.268982,-4.067017 -1.161987,-5.501038c-0.882019,-1.411011 -2.071014,-2.078979 -3.222046,-2.180969c-1.446991,-0.128967 -2.873962,0.610962 -4.062988,1.976013l1.297028,4.390015c0.75296,-1.107056 1.639984,-1.984009 2.659973,-1.907043c0.696991,0.055969 1.439026,0.727966 1.437988,2.151001c0.001038,1.475037 -1.164001,1.906006 -1.800964,2.187012c-1.880981,0.824036 -3.130005,1.612976 -3.127991,5.578003c0,4.153992 1.677002,6.929993 3.978973,7.007996c1.149017,0.039001 2.54303,-0.554016 3.54303,-1.531006l-1.165039,-4.106995l0.000031,0z" id="path106" fill-rule="nonzero" fill="#373535"/>
     </g>
     <g id="g108">
      <path d="m350.875702,666.513245l-2.845001,-0.250977l0.002014,15.533997l-2.384003,-0.112976l0.001984,4.411987l7.546021,0.269958l-0.001007,-4.325928l-2.319,-0.108032l-0.001007,-15.41803z" id="path110" fill-rule="nonzero" fill="#373535"/>
     </g>
     <g id="g112">
      <path d="m356.955811,667.045471l-2.753998,-0.242004l0.001984,19.597046l2.754028,0.097961l-0.002014,-19.453003z" id="path114" fill-rule="nonzero" fill="#373535"/>
     </g>
     <g id="g116">
      <path d="m363.047607,675.090454l2.454987,11.713989l2.815002,0.100037l-4.273987,-19.23999l-2.053009,-0.179016l-4.350983,19.038025l2.934998,0.10498l2.472992,-11.538025z" id="path118" fill-rule="nonzero" fill="#373535"/>
     </g>
     <g id="g120">
      <path d="m372.057404,681.268188l-0.024994,-0.001038l-1.045013,-6.014954l2.095001,0.141968l-1.024994,5.874023zm-1.769989,-9.798035l-0.675018,-3.319031l-2.72998,-0.236938l3.79599,19.073975l2.748993,0.098022l3.584015,-18.286987l-2.631012,-0.230042l-0.622986,3.173035l-3.470001,-0.272034z" id="path122" fill-rule="nonzero" fill="#373535"/>
     </g>
     <g id="g124">
      <path d="m380.195099,673.096313l2.859985,0.217957l0,-3.985962l-5.283997,-0.462036l0,18.376038l2.424011,0.085999l0,-14.231995z" id="path126" fill-rule="nonzero" fill="#373535"/>
     </g>
    </g>
   </g>
  </g>
 </g>
</svg>